<?xml version="1.0" standalone="no"?><!DOCTYPE svg PUBLIC "-//W3C//DTD SVG 1.1//EN" "http://www.w3.org/Graphics/SVG/1.1/DTD/svg11.dtd"><svg t="1570256885678" class="icon" viewBox="0 0 1024 1024" version="1.1" xmlns="http://www.w3.org/2000/svg" p-id="2820" width="128" height="128" xmlns:xlink="http://www.w3.org/1999/xlink"><defs><style type="text/css"></style></defs><path d="M898.608663 898.362558c6.261611-6.28003 10.261715-14.84101 10.261715-24.542976L908.870378 148.923798c0-9.120728-4.000104-18.24248-10.261715-24.541953l0 0c-6.281053-6.261611-14.820544-9.699919-24.523533-9.699919l0 0-724.111932 0 0 0c-9.69071 0-18.243503 3.439332-24.5133 9.699919l0 0c-6.27082 6.300496-9.691733 15.422248-9.691733 24.541953l0 724.894761c0 9.701966 3.420913 18.263969 9.691733 24.542976 6.269797 6.281053 14.82259 10.280134 24.5133 10.280134l0 0 724.111932 0 0 0C883.787096 908.642692 892.32761 904.642588 898.608663 898.362558L898.608663 898.362558zM292.522822 485.697961l193.847963 0L486.370785 291.619754c0-13.682627 11.412934-25.663496 25.665543-25.663496l0 0c14.241352 0 25.662473 11.980869 25.662473 25.663496l0 194.07923 193.847963 0c14.260795 0 25.662473 11.42112 25.662473 25.682939l0 0c0 14.261818-11.402701 25.682939-25.662473 25.682939L537.697777 537.064862l0 194.059787c0 14.281261-11.42112 25.683962-25.662473 25.683962l0 0c-14.252609 0-25.665543-11.402701-25.665543-25.683962l0-194.059787L292.522822 537.064862c-13.690814 0-25.662473-11.42112-25.662473-25.682939l0 0C266.860349 497.120105 278.832008 485.697961 292.522822 485.697961L292.522822 485.697961zM149.973198 62.735833l724.111932 0 0 0c23.942295 0 45.605687 9.700943 61.007469 25.12319 15.404852 15.980973 25.085328 37.683251 25.085328 61.064774l0 724.894761c0 23.982204-9.680477 45.665039-25.085328 61.08524l0 0c-15.401782 15.401782-37.065174 25.102724-61.007469 25.102724l0 0-724.111932 0 0 0c-23.373337 0-45.036729-9.700943-60.999282-25.102724l0 0c-15.401782-15.420201-25.092491-37.104059-25.092491-61.08524L63.881424 148.923798c0-23.382547 9.691733-45.084824 25.092491-61.064774l0 0C104.936469 72.436776 126.599861 62.735833 149.973198 62.735833L149.973198 62.735833z" p-id="2821" fill="#8a8a8a"></path></svg>